<?xml version="1.0" encoding="utf-8"?>
<!-- Generator: Adobe Illustrator 15.1.0, SVG Export Plug-In . SVG Version: 6.00 Build 0)  -->
<!DOCTYPE svg PUBLIC "-//W3C//DTD SVG 1.1//EN" "http://www.w3.org/Graphics/SVG/1.1/DTD/svg11.dtd">
<svg version="1.1" id="Layer_1" xmlns="http://www.w3.org/2000/svg" xmlns:xlink="http://www.w3.org/1999/xlink" x="0px" y="0px"
	 width="452.398px" height="200px" viewBox="0 0 452.398 200" enable-background="new 0 0 452.398 200" xml:space="preserve">
<g>
	<g>
		<path fill="#FFFFFF" d="M51.318,122.408c3.642-5.238,6.967-9.883,9.975-13.936c3.008-4.052,5.78-7.58,8.318-10.589
			c2.537-3.008,4.9-5.534,7.09-7.581c2.189-2.046,4.317-3.692,6.384-4.941c2.066-1.248,4.123-2.138,6.169-2.67
			c2.046-0.531,4.194-0.798,6.445-0.798c5.361,0,8.042,1.719,8.042,5.156c0,0.451-0.041,0.982-0.123,1.596
			c-0.083,0.614-0.236,1.208-0.46,1.78c-0.226,0.573-0.543,1.064-0.952,1.473c-0.41,0.41-0.921,0.614-1.535,0.614
			c-0.451,0-0.973-0.225-1.565-0.675c-0.593-0.45-1.279-0.951-2.056-1.504c-0.778-0.552-1.679-1.063-2.701-1.535
			c-1.023-0.47-2.169-0.706-3.438-0.706c-1.392,0-2.977,0.574-4.757,1.719c-1.78,1.146-3.704,2.701-5.77,4.665
			c-2.067,1.964-4.216,4.246-6.446,6.845c-2.231,2.599-4.492,5.351-6.783,8.256c6.139,13.996,11.55,26.13,16.237,36.4
			c4.685,10.273,8.962,18.775,12.83,25.506c3.867,6.73,7.437,11.733,10.711,15.01c3.274,3.273,6.568,4.91,9.883,4.91
			c0.573,0,1.145-0.082,1.719-0.245c0.573-0.164,1.084-0.349,1.535-0.554c0.531-0.205,1.064-0.471,1.596-0.797l1.289,2.394
			c-0.696,0.409-1.648,0.899-2.854,1.474c-1.208,0.572-2.64,1.114-4.297,1.627c-1.658,0.512-3.49,0.951-5.494,1.319
			c-2.005,0.368-4.154,0.553-6.445,0.553c-3.152,0-6.078-0.491-8.778-1.474c-2.701-0.98-5.331-2.568-7.888-4.758
			c-2.558-2.188-5.075-5.055-7.55-8.594c-2.477-3.541-5.055-7.867-7.735-12.982c-2.681-5.115-5.515-11.069-8.501-17.863
			c-2.988-6.793-6.241-14.568-9.761-23.327l-2.333,3.499v37.875c0,3.152-0.829,5.443-2.486,6.876
			c-1.658,1.433-4.185,2.148-7.582,2.148c-3.438,0-5.975-0.718-7.612-2.148c-1.637-1.433-2.455-3.724-2.455-6.876V95.644
			c0-0.9-0.103-1.616-0.307-2.148c-0.205-0.532-0.491-0.952-0.859-1.259c-0.368-0.307-0.809-0.511-1.32-0.614
			c-0.512-0.102-1.074-0.153-1.688-0.153c-0.901,0-2.016,0.145-3.346,0.43c-1.33,0.287-2.731,0.716-4.205,1.289
			c-1.474,0.574-2.958,1.279-4.451,2.118c-1.494,0.839-2.824,1.791-3.99,2.854c-1.166,1.065-2.118,2.251-2.854,3.562
			c-0.736,1.31-1.104,2.721-1.104,4.234c0,1.311,0.173,2.354,0.521,3.131c0.347,0.778,0.746,1.361,1.197,1.75
			c0.45,0.389,0.91,0.635,1.381,0.736c0.47,0.103,0.808,0.154,1.013,0.154c1.022,0,1.861-0.174,2.517-0.522
			c0.654-0.347,1.248-0.715,1.78-1.104c0.531-0.389,1.033-0.758,1.504-1.105c0.47-0.348,1.013-0.521,1.626-0.521
			c0.491,0,1.013,0.113,1.565,0.338c0.553,0.226,1.064,0.582,1.535,1.073c0.47,0.491,0.869,1.136,1.197,1.935
			c0.327,0.798,0.491,1.771,0.491,2.916c0,1.637-0.317,3.049-0.951,4.234c-0.635,1.188-1.453,2.18-2.456,2.979
			c-1.003,0.798-2.148,1.392-3.438,1.779c-1.289,0.39-2.569,0.584-3.836,0.584c-1.964,0-3.735-0.338-5.31-1.014
			c-1.576-0.675-2.916-1.605-4.021-2.793c-1.104-1.186-1.944-2.578-2.517-4.174C0.286,114.734,0,113.037,0,111.234
			c0-2.823,0.511-5.411,1.535-7.764C2.557,101.117,3.959,99,5.74,97.117c1.78-1.882,3.867-3.53,6.261-4.941
			c2.394-1.412,4.982-2.588,7.765-3.53c2.783-0.941,5.688-1.647,8.717-2.118c3.028-0.47,6.056-0.706,9.085-0.706
			c3.355,0,5.964,0.317,7.827,0.951c1.862,0.635,3.232,1.402,4.113,2.302c0.88,0.9,1.401,1.841,1.565,2.824
			c0.163,0.982,0.246,1.801,0.246,2.456L51.318,122.408L51.318,122.408z"/>
		<path fill="#FFFFFF" d="M125.906,118.909c-1.392,0-2.681,0.164-3.868,0.491c-1.187,0.328-2.209,0.735-3.069,1.228
			c-0.86,0.491-1.535,1.034-2.026,1.626c-0.491,0.594-0.737,1.157-0.737,1.688c0,0.615,0.316,1.055,0.952,1.32
			c0.634,0.268,1.34,0.573,2.118,0.92c0.777,0.348,1.483,0.84,2.118,1.475c0.634,0.635,0.952,1.605,0.952,2.916
			c0,0.859-0.175,1.647-0.522,2.363c-0.348,0.717-0.819,1.351-1.412,1.902c-0.594,0.553-1.289,0.982-2.087,1.289
			c-0.798,0.307-1.626,0.46-2.486,0.46c-2.292,0-4.144-0.776-5.556-2.333c-1.412-1.555-2.118-3.622-2.118-6.199
			c0-2.496,0.654-4.636,1.964-6.416c1.309-1.779,3.018-3.242,5.126-4.389c2.107-1.145,4.491-1.995,7.151-2.547
			c2.66-0.553,5.319-0.829,7.98-0.829c3.192,0,6.24,0.349,9.146,1.043c2.905,0.696,5.473,1.801,7.704,3.315
			c2.23,1.515,4.01,3.438,5.34,5.77c1.33,2.333,1.995,5.157,1.995,8.471v34.684c0,0.367,0.02,0.777,0.062,1.228
			c0.04,0.451,0.143,0.859,0.307,1.228c0.163,0.369,0.409,0.677,0.737,0.922c0.327,0.246,0.798,0.367,1.412,0.367
			c0.737,0,1.421-0.274,2.057-0.827c0.634-0.554,1.197-1.114,1.688-1.688l1.535,1.289c-0.614,0.859-1.351,1.803-2.21,2.824
			c-0.859,1.023-1.903,1.984-3.13,2.885c-1.228,0.9-2.661,1.657-4.297,2.271c-1.637,0.613-3.499,0.921-5.586,0.921
			c-2.578,0-4.871-0.769-6.875-2.302c-2.006-1.535-3.315-3.898-3.929-7.092c-1.311,1.762-2.67,3.233-4.083,4.42
			c-1.412,1.188-2.854,2.148-4.328,2.887c-1.473,0.736-2.957,1.268-4.45,1.596c-1.495,0.327-2.999,0.491-4.512,0.491
			c-1.964,0-3.868-0.308-5.709-0.921c-1.842-0.614-3.49-1.586-4.942-2.916c-1.453-1.329-2.619-3.06-3.499-5.188
			c-0.881-2.127-1.32-4.728-1.32-7.796c0-3.723,0.736-6.771,2.209-9.146c1.474-2.373,3.407-4.367,5.801-5.984
			c2.394-1.616,5.115-2.997,8.164-4.145c3.048-1.145,6.169-2.353,9.361-3.621c2.373-0.941,4.103-2.342,5.187-4.205
			c1.084-1.861,1.627-3.775,1.627-5.739c0-3.028-0.89-5.453-2.67-7.274C131.4,119.82,128.976,118.909,125.906,118.909z
			 M135.667,145.795c0-1.021-0.328-1.8-0.982-2.333c-0.655-0.53-1.494-0.798-2.517-0.798c-1.433,0-2.793,0.328-4.082,0.982
			s-2.425,1.617-3.407,2.885c-0.982,1.269-1.76,2.834-2.333,4.695c-0.574,1.862-0.859,4.021-0.859,6.478
			c0,2.374,0.173,4.338,0.522,5.894c0.347,1.555,0.818,2.793,1.412,3.713c0.593,0.922,1.279,1.565,2.057,1.935
			c0.777,0.368,1.596,0.553,2.455,0.553c1.064,0,2.066-0.276,3.008-0.829c0.941-0.552,1.759-1.258,2.456-2.117
			c0.695-0.858,1.248-1.819,1.658-2.886c0.408-1.063,0.614-2.127,0.614-3.19v-14.98H135.667z"/>
		<path fill="#FFFFFF" d="M188.114,126.827c1.555-2.373,3.212-4.521,4.972-6.445c0.736-0.817,1.535-1.616,2.394-2.394
			s1.75-1.473,2.67-2.088c0.92-0.613,1.872-1.104,2.854-1.474c0.982-0.368,1.964-0.552,2.947-0.552c2.087,0,3.723,0.625,4.911,1.872
			c1.187,1.249,1.78,2.999,1.78,5.249c0,1.393-0.113,2.732-0.337,4.021c-0.226,1.289-0.666,2.854-1.32,4.695h-1.719
			c-0.246-1.268-0.819-2.322-1.719-3.161c-0.901-0.838-2.21-1.259-3.929-1.259c-1.269,0-2.517,0.236-3.745,0.706
			c-1.228,0.472-2.425,1.054-3.591,1.75s-2.271,1.453-3.314,2.271c-1.044,0.819-1.995,1.597-2.854,2.334v39.838
			c0,0.533-0.083,1.168-0.246,1.904c-0.164,0.735-0.563,1.432-1.197,2.086c-0.635,0.655-1.576,1.219-2.824,1.688
			c-1.249,0.47-2.957,0.706-5.125,0.706c-2.169,0-3.878-0.256-5.126-0.768c-1.249-0.512-2.2-1.115-2.854-1.812
			c-0.655-0.695-1.065-1.412-1.228-2.147c-0.164-0.738-0.246-1.33-0.246-1.781V124.68c0-1.188-0.276-2.22-0.829-3.101
			c-0.552-0.879-1.484-1.319-2.793-1.319c-0.696,0-1.289,0.123-1.78,0.368c-0.491,0.245-1.023,0.595-1.596,1.043l-1.29-1.535
			c0.941-0.776,1.995-1.544,3.162-2.302c1.167-0.757,2.425-1.421,3.775-1.995c1.35-0.573,2.802-1.043,4.358-1.412
			c1.555-0.368,3.192-0.552,4.911-0.552c1.759,0,3.263,0.236,4.512,0.706c1.248,0.471,2.271,1.084,3.069,1.841
			c0.798,0.758,1.421,1.605,1.872,2.547c0.45,0.942,0.788,1.895,1.013,2.854c0.224,0.962,0.358,1.883,0.399,2.763
			C188.093,125.467,188.114,126.213,188.114,126.827z"/>
		<path fill="#FFFFFF" d="M234.516,118.909c-1.392,0-2.681,0.164-3.868,0.491c-1.188,0.328-2.209,0.735-3.068,1.228
			c-0.859,0.491-1.535,1.034-2.025,1.626c-0.491,0.594-0.737,1.157-0.737,1.688c0,0.615,0.316,1.055,0.952,1.32
			c0.634,0.268,1.34,0.573,2.118,0.92c0.776,0.348,1.483,0.84,2.118,1.475c0.634,0.635,0.951,1.605,0.951,2.916
			c0,0.859-0.174,1.647-0.521,2.363c-0.348,0.717-0.818,1.351-1.412,1.902c-0.594,0.553-1.289,0.982-2.087,1.289
			s-1.626,0.46-2.486,0.46c-2.292,0-4.144-0.776-5.556-2.333c-1.412-1.555-2.118-3.622-2.118-6.199c0-2.496,0.654-4.636,1.964-6.416
			c1.309-1.779,3.018-3.242,5.126-4.389c2.107-1.145,4.491-1.995,7.151-2.547c2.66-0.553,5.318-0.829,7.98-0.829
			c3.191,0,6.239,0.349,9.146,1.043c2.905,0.696,5.474,1.801,7.704,3.315c2.229,1.515,4.01,3.438,5.341,5.77
			c1.329,2.333,1.994,5.157,1.994,8.471v34.684c0,0.367,0.021,0.777,0.062,1.228c0.041,0.451,0.145,0.859,0.309,1.228
			c0.162,0.369,0.408,0.677,0.736,0.922c0.326,0.246,0.797,0.367,1.412,0.367c0.735,0,1.42-0.274,2.055-0.827
			c0.636-0.554,1.197-1.114,1.688-1.688l1.535,1.289c-0.614,0.859-1.351,1.803-2.21,2.824c-0.859,1.023-1.902,1.984-3.131,2.885
			s-2.661,1.657-4.297,2.271c-1.639,0.613-3.5,0.921-5.588,0.921c-2.578,0-4.869-0.769-6.875-2.302
			c-2.004-1.535-3.313-3.898-3.928-7.092c-1.311,1.762-2.67,3.233-4.082,4.42c-1.412,1.188-2.854,2.148-4.328,2.887
			c-1.474,0.736-2.957,1.268-4.451,1.596c-1.494,0.327-2.998,0.491-4.512,0.491c-1.964,0-3.867-0.308-5.708-0.921
			c-1.842-0.614-3.49-1.586-4.942-2.916c-1.453-1.329-2.619-3.06-3.499-5.188c-0.881-2.127-1.32-4.728-1.32-7.796
			c0-3.723,0.736-6.771,2.209-9.146c1.474-2.373,3.407-4.367,5.801-5.984c2.394-1.616,5.115-2.997,8.164-4.145
			c3.049-1.145,6.17-2.353,9.361-3.621c2.373-0.941,4.104-2.342,5.188-4.205c1.084-1.861,1.627-3.775,1.627-5.739
			c0-3.028-0.891-5.453-2.67-7.274C240.009,119.82,237.585,118.909,234.516,118.909z M244.276,145.795
			c0-1.021-0.327-1.8-0.981-2.333c-0.655-0.53-1.494-0.798-2.518-0.798c-1.433,0-2.793,0.328-4.082,0.982s-2.425,1.617-3.406,2.885
			c-0.982,1.269-1.761,2.834-2.334,4.695c-0.574,1.862-0.858,4.021-0.858,6.478c0,2.374,0.173,4.338,0.522,5.894
			c0.346,1.555,0.817,2.793,1.412,3.713c0.592,0.922,1.278,1.565,2.057,1.935c0.777,0.368,1.596,0.553,2.455,0.553
			c1.063,0,2.065-0.276,3.008-0.829c0.941-0.552,1.759-1.258,2.455-2.117c0.695-0.858,1.248-1.819,1.658-2.886
			c0.408-1.063,0.614-2.127,0.614-3.19v-14.98H244.276z"/>
		<path fill="#FFFFFF" d="M272.886,146.164c0-5.359,0.777-10.057,2.332-14.088c1.556-4.03,3.633-7.396,6.23-10.098
			c2.6-2.701,5.617-4.728,9.055-6.078c3.438-1.351,7.039-2.025,10.805-2.025s7.365,0.625,10.804,1.872
			c3.438,1.249,6.455,3.162,9.056,5.739c2.599,2.578,4.674,5.843,6.229,9.791c1.556,3.951,2.333,8.625,2.333,14.027
			c0,5.361-0.777,10.107-2.333,14.24c-1.556,4.135-3.632,7.612-6.229,10.436c-2.601,2.824-5.617,4.963-9.056,6.416
			c-3.438,1.451-7.039,2.18-10.804,2.18c-3.766,0-7.366-0.688-10.805-2.057c-3.438-1.371-6.455-3.408-9.055-6.107
			c-2.599-2.701-4.676-6.078-6.23-10.129C273.664,156.23,272.886,151.525,272.886,146.164z M310.639,145.55
			c0-3.272-0.113-6.435-0.339-9.483c-0.225-3.049-0.666-5.76-1.319-8.135c-0.653-2.373-1.597-4.266-2.823-5.678
			c-1.228-1.412-2.845-2.118-4.85-2.118c-2.006,0-3.622,0.747-4.85,2.241c-1.229,1.494-2.17,3.458-2.824,5.893
			c-0.654,2.436-1.084,5.209-1.288,8.317c-0.206,3.111-0.308,6.304-0.308,9.576c0,3.274,0.102,6.478,0.308,9.606
			c0.204,3.131,0.634,5.924,1.288,8.379s1.597,4.432,2.824,5.925s2.844,2.239,4.85,2.239c2.005,0,3.622-0.775,4.85-2.332
			c1.229-1.556,2.17-3.602,2.823-6.139s1.095-5.402,1.319-8.595C310.525,152.057,310.639,148.825,310.639,145.55z"/>
		<path fill="#FFFFFF" d="M357.763,130.572c1.432-1.924,2.967-3.877,4.604-5.862c1.637-1.983,3.396-3.774,5.279-5.371
			c1.882-1.596,3.93-2.905,6.139-3.929c2.211-1.021,4.625-1.535,7.243-1.535c2.333,0,4.276,0.46,5.832,1.381
			c1.556,0.92,2.813,2.025,3.774,3.314c0.962,1.289,1.637,2.63,2.025,4.021c0.389,1.392,0.584,2.578,0.584,3.56
			c0,1.802-0.236,3.675-0.707,5.617c-0.471,1.944-1.269,3.867-2.394,5.771c-1.126,1.903-2.63,3.745-4.513,5.524
			c-1.883,1.78-4.256,3.408-7.121,4.881c3.848,8.145,7.592,15.152,11.234,21.023c3.643,5.873,7.15,10.701,10.527,14.487
			c3.377,3.785,6.619,6.578,9.729,8.379s6.078,2.701,8.9,2.701c0.49,0,0.982-0.062,1.475-0.185c0.49-0.123,0.939-0.268,1.35-0.431
			c0.449-0.163,0.922-0.368,1.412-0.612l1.166,2.147c-1.104,0.614-2.23,1.196-3.375,1.749c-1.146,0.553-2.457,1.033-3.93,1.443
			c-1.473,0.408-3.172,0.735-5.096,0.98c-1.924,0.246-4.215,0.369-6.875,0.369c-2.414,0-4.799-0.287-7.15-0.86
			c-2.354-0.573-4.717-1.596-7.09-3.067c-2.375-1.475-4.779-3.438-7.214-5.895c-2.437-2.455-4.932-5.564-7.489-9.33
			c-2.557-3.765-5.187-8.246-7.888-13.443c-2.7-5.196-5.505-11.273-8.409-18.231c3.928-2.905,7.019-5.596,9.27-8.071
			c2.25-2.477,3.947-4.717,5.095-6.723c1.146-2.005,1.86-3.785,2.147-5.341s0.431-2.886,0.431-3.99c0-0.163-0.021-0.438-0.062-0.829
			c-0.041-0.388-0.174-0.767-0.398-1.135c-0.227-0.369-0.553-0.696-0.982-0.982c-0.43-0.285-1.033-0.43-1.811-0.43
			c-1.516,0-3.051,0.645-4.604,1.934c-1.557,1.289-3.039,2.885-4.451,4.789c-1.412,1.902-2.69,3.949-3.836,6.139
			c-1.146,2.189-2.088,4.185-2.824,5.984v31.676c0,0.533-0.092,1.166-0.275,1.902c-0.186,0.736-0.613,1.434-1.289,2.088
			s-1.656,1.219-2.945,1.688s-3.02,0.706-5.188,0.706c-2.17,0-3.867-0.257-5.095-0.769c-1.229-0.511-2.139-1.113-2.731-1.811
			c-0.594-0.695-0.963-1.412-1.104-2.148c-0.145-0.736-0.215-1.33-0.215-1.779V92.881c0-1.186-0.276-2.219-0.83-3.1
			c-0.551-0.88-1.482-1.32-2.793-1.32c-0.695,0-1.299,0.113-1.811,0.337c-0.512,0.226-1.055,0.563-1.627,1.013l-1.229-1.474
			c0.941-0.777,1.984-1.544,3.131-2.302c1.146-0.757,2.404-1.421,3.775-1.995c1.37-0.573,2.833-1.043,4.389-1.412
			s3.192-0.553,4.912-0.553c2.658,0,4.727,0.359,6.199,1.074c1.473,0.716,2.557,1.596,3.254,2.64
			c0.694,1.043,1.113,2.148,1.258,3.315c0.144,1.166,0.215,2.2,0.215,3.1v38.368H357.763z"/>
		<path fill="#FFFFFF" d="M418.328,149.417c0,1.31,0.193,2.731,0.584,4.267c0.389,1.534,0.951,3.08,1.688,4.635
			c0.736,1.556,1.646,3.039,2.73,4.451c1.084,1.41,2.334,2.67,3.744,3.773c1.412,1.105,2.979,1.984,4.695,2.641
			c1.721,0.654,3.602,0.981,5.648,0.981c1.432,0,2.762-0.163,3.99-0.491c1.227-0.326,2.373-0.775,3.438-1.351
			c1.063-0.572,2.086-1.237,3.068-1.995s1.965-1.564,2.947-2.426l1.533,1.475c-0.941,1.27-2.146,2.661-3.621,4.174
			c-1.475,1.516-3.254,2.938-5.342,4.268c-2.086,1.33-4.521,2.436-7.305,3.314s-5.953,1.319-9.514,1.319
			c-3.563,0-7.029-0.646-10.406-1.935c-3.375-1.289-6.373-3.223-8.992-5.801s-4.717-5.791-6.293-9.638
			c-1.574-3.847-2.363-8.349-2.363-13.505c0-3.725,0.473-7.141,1.412-10.251c0.941-3.109,2.221-5.913,3.838-8.41
			c1.615-2.496,3.498-4.687,5.646-6.567c2.148-1.883,4.41-3.447,6.783-4.697c2.373-1.248,4.799-2.188,7.273-2.823
			c2.477-0.634,4.859-0.952,7.152-0.952c3.025,0,5.666,0.328,7.918,0.982c2.25,0.654,4.123,1.535,5.617,2.64
			c1.492,1.104,2.607,2.385,3.346,3.837c0.736,1.453,1.104,2.977,1.104,4.572c0,1.925-0.553,3.652-1.656,5.188
			c-1.105,1.535-2.578,2.875-4.42,4.021L418.328,149.417z M430.667,136.956c0.531-0.327,0.971-0.646,1.318-0.952
			s0.623-0.675,0.83-1.105c0.203-0.43,0.355-0.961,0.459-1.596c0.102-0.634,0.152-1.422,0.152-2.363
			c0-1.022-0.111-2.158-0.336-3.407c-0.227-1.248-0.604-2.425-1.137-3.53c-0.531-1.105-1.207-2.025-2.025-2.762
			c-0.818-0.737-1.801-1.105-2.945-1.105c-1.475,0-2.732,0.44-3.775,1.32s-1.902,2.016-2.578,3.406
			c-0.676,1.393-1.207,2.979-1.596,4.759c-0.391,1.78-0.688,3.571-0.893,5.371c-0.203,1.801-0.326,3.53-0.367,5.187
			c-0.041,1.657-0.063,3.061-0.063,4.205L430.667,136.956z"/>
	</g>
	<g>
		<path fill="#FFFFFF" d="M17.842,67.115c1.091,0,2.169-0.198,3.233-0.594s2.012-1.05,2.844-1.964s1.507-2.107,2.026-3.581
			c0.518-1.473,0.777-3.274,0.777-5.402c0-2.292-0.566-4.515-1.698-6.671c-1.132-2.155-2.551-4.276-4.256-6.363
			c-1.706-2.087-3.547-4.16-5.525-6.221c-1.979-2.06-3.82-4.16-5.525-6.302c-1.705-2.141-3.124-4.351-4.256-6.629
			C4.33,21.11,3.764,18.73,3.764,16.247c0-2.482,0.457-4.727,1.371-6.732C6.049,7.51,7.29,5.805,8.859,4.399
			c1.569-1.405,3.397-2.489,5.484-3.253C16.43,0.382,18.66,0,21.034,0c2.538,0,4.794,0.266,6.773,0.798
			c1.978,0.532,3.656,1.255,5.034,2.169c1.377,0.914,2.421,1.992,3.131,3.233c0.709,1.242,1.064,2.558,1.064,3.949
			c0,0.655-0.096,1.33-0.287,2.025c-0.191,0.696-0.491,1.33-0.9,1.903c-0.409,0.573-0.928,1.05-1.555,1.432
			c-0.628,0.382-1.364,0.573-2.209,0.573c-1.01,0-1.753-0.307-2.23-0.92c-0.478-0.614-0.833-1.371-1.064-2.271
			c-0.232-0.9-0.43-1.889-0.594-2.967c-0.164-1.078-0.423-2.067-0.777-2.967c-0.355-0.9-0.887-1.657-1.596-2.271
			s-1.746-0.921-3.11-0.921c-0.737,0-1.467,0.164-2.189,0.491c-0.723,0.327-1.378,0.825-1.964,1.494
			c-0.587,0.669-1.058,1.521-1.412,2.558c-0.355,1.037-0.532,2.265-0.532,3.683c0,1.637,0.341,3.233,1.023,4.788
			c0.682,1.555,1.582,3.09,2.701,4.604c1.118,1.514,2.394,3.028,3.826,4.542c1.432,1.514,2.892,3.042,4.379,4.583
			c1.487,1.542,2.946,3.125,4.379,4.747c1.432,1.624,2.707,3.309,3.826,5.054c1.119,1.746,2.019,3.574,2.701,5.484
			c0.682,1.91,1.023,3.915,1.023,6.016c0,3.083-0.593,5.832-1.78,8.246c-1.187,2.415-2.797,4.447-4.829,6.098
			c-2.033,1.65-4.413,2.912-7.141,3.786c-2.729,0.873-5.634,1.31-8.717,1.31c-2.783,0-5.245-0.348-7.387-1.043
			c-2.142-0.696-3.949-1.617-5.422-2.763c-1.473-1.146-2.585-2.449-3.335-3.908c-0.75-1.46-1.125-2.967-1.125-4.522
			c0-0.655,0.102-1.357,0.307-2.107s0.504-1.439,0.9-2.067c0.395-0.627,0.894-1.152,1.494-1.576c0.6-0.422,1.295-0.634,2.087-0.634
			c0.818,0,1.479,0.205,1.984,0.614c0.505,0.41,0.907,0.956,1.208,1.637c0.3,0.682,0.545,1.46,0.737,2.333
			c0.19,0.874,0.395,1.76,0.614,2.66c0.218,0.9,0.491,1.787,0.818,2.66c0.327,0.873,0.777,1.65,1.351,2.333
			c0.573,0.682,1.31,1.228,2.21,1.637C15.345,66.911,16.477,67.115,17.842,67.115z"/>
		<path fill="#FFFFFF" d="M91.85,40.801c0-3.438-0.157-6.186-0.471-8.246s-0.73-3.628-1.248-4.707
			c-0.519-1.077-1.092-1.787-1.719-2.128c-0.628-0.341-1.269-0.512-1.923-0.512c-0.792,0-1.494,0.212-2.108,0.634
			c-0.614,0.423-1.146,0.908-1.596,1.453c-0.45,0.546-0.833,1.091-1.146,1.637c-0.314,0.546-0.58,0.956-0.798,1.228v27.337
			c0,0.355-0.055,0.785-0.164,1.289c-0.109,0.505-0.375,0.982-0.798,1.432c-0.423,0.45-1.051,0.833-1.882,1.146
			c-0.833,0.313-1.972,0.471-3.417,0.471c-1.446,0-2.585-0.171-3.417-0.512c-0.833-0.341-1.467-0.743-1.903-1.207
			c-0.437-0.464-0.71-0.941-0.819-1.433c-0.109-0.491-0.164-0.886-0.164-1.187V25.905c0-0.791-0.184-1.479-0.552-2.066
			c-0.369-0.586-0.989-0.88-1.862-0.88c-0.464,0-0.859,0.082-1.187,0.246c-0.328,0.164-0.683,0.396-1.064,0.695l-0.859-1.023
			c0.627-0.518,1.33-1.029,2.107-1.535c0.777-0.504,1.617-0.948,2.517-1.33c0.9-0.382,1.869-0.696,2.906-0.941
			c1.037-0.246,2.128-0.369,3.274-0.369c1.773,0,3.151,0.293,4.133,0.88s1.705,1.289,2.169,2.108
			c0.463,0.818,0.743,1.671,0.839,2.558c0.095,0.887,0.143,1.63,0.143,2.23c1.009-1.446,2.155-2.742,3.438-3.888
			c0.518-0.491,1.098-0.968,1.739-1.432c0.641-0.463,1.323-0.88,2.046-1.248c0.723-0.369,1.487-0.661,2.292-0.88
			c0.804-0.218,1.63-0.328,2.476-0.328c1.855,0,3.499,0.355,4.932,1.064c1.432,0.71,2.64,1.897,3.622,3.561
			c0.982,1.665,1.732,3.867,2.251,6.609c0.518,2.742,0.777,6.146,0.777,10.21c0,3.956-0.355,7.394-1.064,10.313
			c-0.71,2.92-1.637,5.402-2.783,7.448c-1.146,2.046-2.442,3.717-3.888,5.013c-1.447,1.295-2.906,2.312-4.379,3.049
			c-1.473,0.737-2.885,1.248-4.236,1.535s-2.517,0.443-3.499,0.471l-0.45-1.678c0.819-0.191,1.576-0.491,2.271-0.9
			c0.695-0.409,1.33-1.01,1.903-1.801c0.573-0.792,1.078-1.794,1.514-3.008c0.436-1.214,0.812-2.735,1.125-4.563
			c0.313-1.828,0.545-3.99,0.696-6.486C91.774,47.042,91.85,44.13,91.85,40.801z"/>
		<path fill="#FFFFFF" d="M109.373,35.44c0-2.783,0.484-5.218,1.453-7.305c0.968-2.087,2.271-3.833,3.908-5.238
			c1.637-1.405,3.533-2.456,5.688-3.151c2.155-0.695,4.419-1.043,6.793-1.043s4.624,0.314,6.752,0.941
			c2.128,0.628,4.01,1.596,5.647,2.906c0.518-0.791,0.941-1.623,1.269-2.497c0.327-0.873,0.491-1.746,0.491-2.619
			c0-1.146-0.307-2.06-0.92-2.742c-0.614-0.682-1.398-1.023-2.353-1.023v-1.187c0.6-0.19,1.131-0.361,1.596-0.512
			c0.464-0.149,0.886-0.266,1.269-0.348c0.382-0.082,0.764-0.144,1.146-0.184c0.382-0.041,0.805-0.062,1.269-0.062
			c1.282,0,2.264,0.396,2.947,1.187c0.682,0.792,1.023,1.883,1.023,3.274c0,0.819-0.191,1.631-0.573,2.435
			c-0.382,0.805-0.859,1.576-1.433,2.313c-0.573,0.736-1.207,1.432-1.903,2.087c-0.696,0.655-1.357,1.228-1.985,1.719
			c1.146,1.31,2.032,2.838,2.66,4.583c0.627,1.746,0.941,3.738,0.941,5.975c0,2.81-0.485,5.293-1.453,7.448
			c-0.969,2.156-2.271,3.97-3.908,5.443c-1.637,1.474-3.533,2.585-5.688,3.335c-2.155,0.75-4.419,1.125-6.793,1.125
			c-1.392,0-2.756-0.123-4.093-0.368c-1.337-0.246-2.592-0.6-3.765-1.064c-0.437,0.328-0.812,0.737-1.125,1.228
			c-0.314,0.491-0.471,1.037-0.471,1.637c0,1.01,0.436,1.76,1.31,2.251c0.873,0.491,2.032,0.846,3.479,1.064
			c1.446,0.219,3.083,0.355,4.911,0.409c1.828,0.055,3.704,0.143,5.627,0.266c1.923,0.123,3.799,0.355,5.627,0.696
			c1.827,0.341,3.464,0.9,4.911,1.678c1.446,0.777,2.605,1.834,3.479,3.171c0.873,1.336,1.31,3.069,1.31,5.198
			c0,1.555-0.327,2.953-0.982,4.194c-0.655,1.241-1.535,2.333-2.64,3.274s-2.388,1.746-3.847,2.415
			c-1.459,0.668-3.001,1.214-4.624,1.637c-1.624,0.422-3.274,0.729-4.952,0.92c-1.678,0.191-3.281,0.287-4.808,0.287
			c-2.783,0-5.287-0.143-7.51-0.43c-2.224-0.287-4.113-0.73-5.668-1.33c-1.555-0.601-2.756-1.378-3.601-2.333
			c-0.846-0.956-1.269-2.101-1.269-3.438c0-0.956,0.218-1.835,0.655-2.64c0.436-0.805,1.016-1.542,1.739-2.21
			c0.722-0.669,1.534-1.269,2.435-1.801c0.9-0.532,1.814-1.03,2.742-1.494c-1.365-0.573-2.503-1.439-3.417-2.599
			s-1.371-2.694-1.371-4.604c0-1.009,0.177-1.944,0.532-2.803c0.354-0.859,0.812-1.65,1.371-2.374
			c0.559-0.723,1.173-1.377,1.842-1.964c0.668-0.586,1.316-1.084,1.944-1.494c-1.119-0.655-2.149-1.453-3.09-2.394
			c-0.941-0.941-1.747-2.005-2.415-3.192c-0.669-1.187-1.187-2.503-1.555-3.949C109.557,38.701,109.373,37.132,109.373,35.44z
			 M138.961,71.739c0-0.873-0.342-1.589-1.023-2.148c-0.682-0.56-1.575-1.009-2.68-1.35c-1.105-0.342-2.36-0.601-3.765-0.778
			c-1.406-0.178-2.831-0.314-4.276-0.409c-1.447-0.096-2.852-0.184-4.215-0.266c-1.365-0.082-2.551-0.191-3.561-0.327
			c-0.573,0.409-1.125,0.852-1.657,1.33c-0.532,0.477-0.996,0.982-1.392,1.514c-0.396,0.532-0.716,1.091-0.961,1.678
			c-0.246,0.586-0.369,1.18-0.369,1.78c0,1.037,0.3,1.903,0.9,2.599c0.6,0.696,1.412,1.248,2.435,1.657
			c1.023,0.409,2.21,0.696,3.561,0.859s2.776,0.246,4.276,0.246c1.991,0,3.778-0.171,5.361-0.512
			c1.582-0.341,2.919-0.805,4.011-1.391c1.091-0.587,1.923-1.262,2.497-2.026C138.674,73.431,138.961,72.612,138.961,71.739z
			 M132.74,35.113c0-1.582-0.082-3.124-0.246-4.625c-0.164-1.5-0.45-2.837-0.859-4.01c-0.409-1.173-0.969-2.121-1.678-2.844
			c-0.71-0.723-1.624-1.084-2.742-1.084c-1.119,0-2.033,0.375-2.742,1.125c-0.709,0.751-1.269,1.733-1.678,2.947
			c-0.409,1.214-0.696,2.592-0.859,4.133c-0.164,1.542-0.246,3.104-0.246,4.686c0,1.61,0.082,3.192,0.246,4.747
			s0.45,2.947,0.859,4.174c0.409,1.228,0.968,2.217,1.678,2.967c0.709,0.75,1.623,1.125,2.742,1.125
			c1.118,0,2.032-0.396,2.742-1.187c0.709-0.791,1.269-1.821,1.678-3.09c0.409-1.269,0.696-2.694,0.859-4.276
			C132.659,38.319,132.74,36.723,132.74,35.113z"/>
	</g>
	<g>
		<path fill="#FFFFFF" d="M190.768,64.334c0.45-1.207,0.921-2.506,1.412-3.898c0.491-1.391,0.972-2.829,1.442-4.312
			c0.47-1.483,0.926-2.987,1.366-4.512c0.44-1.524,0.833-3.023,1.182-4.496l-2.977-9.761c-0.205-0.675-0.189-1.263,0.046-1.765
			c0.235-0.501,0.609-0.921,1.121-1.258c0.511-0.338,1.12-0.588,1.826-0.752s1.447-0.246,2.225-0.246
			c0.675,0,1.279,0.036,1.811,0.107c0.532,0.072,0.998,0.199,1.396,0.384c0.399,0.184,0.731,0.445,0.998,0.783
			c0.266,0.337,0.48,0.772,0.645,1.304l8.809,28.36c0.471-1.269,0.962-2.64,1.474-4.113c0.511-1.474,1.013-2.987,1.504-4.543
			c0.491-1.555,0.961-3.13,1.412-4.727c0.45-1.596,0.844-3.161,1.182-4.696c0.338-1.535,0.604-3.003,0.798-4.405
			c0.194-1.401,0.292-2.686,0.292-3.852c0-1.351-0.092-2.476-0.276-3.376s-0.394-1.652-0.629-2.256
			c-0.235-0.603-0.445-1.1-0.629-1.489c-0.184-0.388-0.276-0.747-0.276-1.074c0-0.43,0.112-0.792,0.337-1.089
			c0.225-0.296,0.511-0.547,0.86-0.752c0.348-0.205,0.726-0.353,1.135-0.445c0.409-0.092,0.798-0.138,1.167-0.138
			c0.818,0,1.514,0.123,2.087,0.368c0.573,0.245,0.972,0.665,1.197,1.258c0.102,0.307,0.184,0.629,0.246,0.967
			c0.061,0.338,0.107,0.665,0.138,0.982c0.03,0.317,0.046,0.614,0.046,0.89c0,0.276,0,0.497,0,0.66c0,0.859-0.138,2.036-0.415,3.53
			c-0.276,1.494-0.655,3.177-1.136,5.049s-1.028,3.883-1.642,6.031c-0.614,2.148-1.254,4.313-1.918,6.491
			c-0.665,2.179-1.335,4.313-2.01,6.4c-0.675,2.087-1.315,4.016-1.918,5.785c-0.604,1.771-1.136,3.326-1.596,4.666
			s-0.813,2.338-1.059,2.993c-0.164,0.491-0.384,0.88-0.66,1.166c-0.276,0.287-0.594,0.507-0.951,0.66
			c-0.358,0.153-0.748,0.25-1.167,0.292c-0.42,0.041-0.854,0.062-1.305,0.062c-0.818,0-1.488-0.082-2.01-0.246
			c-0.521-0.164-0.936-0.368-1.243-0.614s-0.532-0.511-0.675-0.798c-0.143-0.286-0.256-0.542-0.337-0.767l-6.108-20.073
			c-0.675,2.23-1.361,4.425-2.056,6.583c-0.696,2.159-1.356,4.149-1.98,5.97c-0.625,1.822-1.182,3.413-1.673,4.773
			c-0.491,1.361-0.87,2.358-1.135,2.993c-0.205,0.491-0.456,0.88-0.752,1.166c-0.296,0.287-0.624,0.507-0.982,0.66
			c-0.358,0.153-0.742,0.25-1.151,0.292c-0.41,0.041-0.829,0.062-1.258,0.062c-0.819,0-1.489-0.082-2.011-0.246
			c-0.521-0.164-0.936-0.368-1.243-0.614s-0.538-0.511-0.691-0.798c-0.153-0.286-0.271-0.542-0.353-0.767l-10.93-36.524
			c-0.205-0.695-0.425-1.284-0.66-1.765c-0.235-0.48-0.522-0.875-0.859-1.182c-0.337-0.307-0.747-0.532-1.228-0.675
			s-1.07-0.215-1.765-0.215c-0.573,0-1.238,0.138-1.995,0.415c-0.757,0.277-1.479,0.686-2.164,1.228
			c-0.686,0.542-1.264,1.218-1.734,2.026c-0.471,0.809-0.706,1.745-0.706,2.809c0,0.655,0.086,1.177,0.261,1.565
			c0.173,0.389,0.373,0.681,0.599,0.875c0.225,0.195,0.455,0.317,0.69,0.368c0.235,0.051,0.404,0.077,0.506,0.077
			c0.511,0,0.931-0.086,1.258-0.261c0.327-0.173,0.624-0.358,0.89-0.552c0.266-0.194,0.517-0.378,0.752-0.553
			c0.235-0.173,0.507-0.261,0.813-0.261c0.246,0,0.506,0.057,0.783,0.169c0.277,0.112,0.532,0.292,0.767,0.537
			c0.235,0.245,0.435,0.567,0.599,0.967c0.164,0.399,0.246,0.885,0.246,1.458c0,0.819-0.159,1.525-0.476,2.118
			c-0.317,0.594-0.727,1.089-1.228,1.488s-1.074,0.696-1.719,0.89c-0.645,0.195-1.284,0.292-1.918,0.292
			c-0.982,0-1.857-0.173-2.625-0.521c-0.767-0.348-1.412-0.818-1.934-1.412c-0.522-0.593-0.921-1.284-1.197-2.072
			c-0.276-0.787-0.415-1.631-0.415-2.532c0-2.128,0.409-3.985,1.228-5.571c0.818-1.585,1.903-2.911,3.253-3.975
			c1.351-1.063,2.885-1.857,4.604-2.378c1.719-0.522,3.489-0.783,5.31-0.783c2.046,0,3.724,0.312,5.034,0.936
			c1.309,0.625,2.368,1.427,3.177,2.41c0.808,0.982,1.447,2.082,1.918,3.299c0.471,1.218,0.89,2.42,1.258,3.606L190.768,64.334z"/>
		<path fill="#FFFFFF" d="M237.458,72.315c0,0.266-0.045,0.588-0.138,0.967c-0.092,0.379-0.307,0.736-0.646,1.074
			c-0.336,0.337-0.823,0.625-1.457,0.859c-0.635,0.235-1.494,0.353-2.578,0.353c-1.085,0-1.934-0.128-2.549-0.384
			c-0.613-0.255-1.073-0.557-1.381-0.905c-0.307-0.348-0.496-0.706-0.567-1.074c-0.072-0.369-0.106-0.665-0.106-0.89V48.62
			c0-0.593-0.139-1.11-0.416-1.55c-0.275-0.439-0.742-0.66-1.396-0.66c-0.348,0-0.645,0.061-0.89,0.184
			c-0.246,0.123-0.512,0.297-0.798,0.522l-0.645-0.768c0.47-0.389,0.998-0.772,1.581-1.151c0.583-0.378,1.212-0.711,1.888-0.998
			c0.676-0.286,1.401-0.522,2.18-0.706c0.776-0.184,1.596-0.276,2.455-0.276c1.33,0,2.363,0.18,3.1,0.537
			c0.736,0.358,1.279,0.798,1.627,1.32c0.348,0.522,0.557,1.08,0.629,1.673c0.072,0.594,0.107,1.116,0.107,1.565V72.315
			L237.458,72.315z M227.085,36.22c0-0.573,0.127-1.121,0.384-1.642c0.255-0.522,0.614-0.977,1.073-1.366
			c0.461-0.388,0.992-0.695,1.597-0.92c0.603-0.225,1.263-0.338,1.979-0.338c0.694,0,1.344,0.113,1.948,0.338s1.13,0.532,1.581,0.92
			c0.45,0.389,0.803,0.844,1.059,1.366c0.256,0.521,0.385,1.069,0.385,1.642c0,0.594-0.129,1.146-0.385,1.657
			c-0.256,0.512-0.608,0.957-1.059,1.335c-0.451,0.379-0.979,0.681-1.581,0.906c-0.603,0.225-1.253,0.337-1.948,0.337
			c-0.717,0-1.377-0.112-1.979-0.337c-0.604-0.225-1.136-0.527-1.597-0.906c-0.459-0.378-0.818-0.823-1.073-1.335
			C227.212,37.366,227.085,36.814,227.085,36.22z"/>
		<path fill="#FFFFFF" d="M253.71,45.857V68.54c0,1.085,0.205,1.837,0.615,2.256c0.408,0.42,0.971,0.629,1.688,0.629
			c0.552,0,1.043-0.154,1.473-0.46c0.43-0.307,0.799-0.655,1.105-1.043c0.367-0.43,0.685-0.931,0.951-1.504l0.951,0.43
			c-0.308,0.655-0.671,1.371-1.091,2.148c-0.419,0.778-0.978,1.499-1.672,2.164c-0.696,0.666-1.571,1.223-2.625,1.673
			s-2.378,0.675-3.976,0.675c-0.899,0-1.764-0.133-2.594-0.399c-0.828-0.266-1.564-0.686-2.209-1.258
			c-0.644-0.572-1.162-1.289-1.55-2.148c-0.389-0.86-0.583-1.893-0.583-3.1V45.857h-3.438v-2.21c0.572,0,1.371-0.148,2.394-0.445
			c1.022-0.296,2.072-0.793,3.146-1.489c1.074-0.695,2.072-1.626,2.992-2.793c0.922-1.166,1.576-2.609,1.965-4.328h2.455v9.054
			h5.004c1.637,0,2.455-0.276,2.455-0.829c0-0.204-0.103-0.342-0.308-0.414c-0.204-0.072-0.435-0.164-0.69-0.276
			c-0.256-0.112-0.485-0.271-0.689-0.476c-0.205-0.205-0.307-0.542-0.307-1.013c0-0.572,0.179-1.023,0.537-1.35
			c0.356-0.327,0.822-0.491,1.396-0.491c0.368,0,0.69,0.077,0.967,0.23c0.277,0.153,0.507,0.358,0.69,0.614
			c0.185,0.256,0.322,0.548,0.414,0.875c0.093,0.328,0.139,0.655,0.139,0.982c0,1.331-0.384,2.39-1.15,3.177
			c-0.769,0.788-2,1.182-3.699,1.182H253.71z"/>
		<path fill="#FFFFFF" d="M274.699,49.05c0.758-1.084,1.616-2.057,2.578-2.916c0.389-0.368,0.824-0.726,1.305-1.074
			s0.992-0.66,1.535-0.936s1.114-0.496,1.719-0.66s1.224-0.246,1.856-0.246c1.371,0,2.599,0.267,3.685,0.798
			c1.084,0.532,1.994,1.422,2.73,2.67c0.736,1.249,1.299,2.901,1.688,4.957c0.389,2.057,0.584,4.609,0.584,7.658
			c0,2.967-0.268,5.545-0.799,7.734c-0.533,2.19-1.229,4.051-2.088,5.586s-1.83,2.788-2.914,3.76
			c-1.086,0.971-2.181,1.734-3.285,2.286c-1.104,0.553-2.17,0.937-3.191,1.151c-1.023,0.215-1.903,0.332-2.641,0.353l-0.307-1.259
			c0.921-0.225,1.738-0.645,2.455-1.258c0.716-0.614,1.32-1.622,1.811-3.023c0.492-1.401,0.865-3.289,1.121-5.663
			s0.383-5.433,0.383-9.177c0-2.578-0.116-4.639-0.353-6.185c-0.235-1.544-0.542-2.721-0.921-3.53
			c-0.379-0.808-0.809-1.34-1.289-1.596s-0.967-0.384-1.458-0.384c-0.594,0-1.114,0.159-1.565,0.476
			c-0.449,0.318-0.844,0.681-1.182,1.09c-0.337,0.41-0.624,0.818-0.859,1.228c-0.234,0.41-0.435,0.717-0.599,0.921v20.503
			c0,0.266-0.041,0.588-0.122,0.967c-0.082,0.379-0.281,0.736-0.599,1.074c-0.317,0.337-0.788,0.625-1.412,0.859
			c-0.624,0.234-1.479,0.353-2.563,0.353s-1.943-0.128-2.578-0.384c-0.635-0.255-1.109-0.557-1.428-0.905
			c-0.316-0.348-0.517-0.706-0.599-1.074c-0.082-0.369-0.122-0.665-0.122-0.89V32.721c0-0.593-0.139-1.11-0.415-1.55
			c-0.276-0.439-0.741-0.66-1.396-0.66c-0.349,0-0.649,0.057-0.905,0.169c-0.257,0.112-0.527,0.281-0.813,0.506l-0.613-0.737
			c0.471-0.388,0.992-0.772,1.564-1.151c0.573-0.378,1.202-0.711,1.889-0.998c0.686-0.286,1.416-0.522,2.194-0.706
			c0.777-0.184,1.597-0.276,2.455-0.276c1.33,0,2.362,0.179,3.101,0.537c0.736,0.358,1.278,0.798,1.627,1.319
			c0.348,0.522,0.558,1.075,0.629,1.658c0.072,0.583,0.106,1.1,0.106,1.55L274.699,49.05L274.699,49.05z"/>
		<path fill="#FFFFFF" d="M344.356,62.258l-12.892-25.675L331,45.213c-0.144,2.507-0.269,4.996-0.375,7.466
			c-0.107,2.47-0.306,4.822-0.592,7.054c-0.287,2.232-0.734,4.303-1.343,6.212c-0.608,1.91-1.491,3.563-2.649,4.959
			c-1.158,1.397-2.662,2.489-4.513,3.277c-1.851,0.788-4.159,1.182-6.929,1.182c-1.219,0-2.389-0.102-3.51-0.305
			c-1.123-0.202-2.112-0.483-2.973-0.841c-0.859-0.358-1.545-0.782-2.059-1.271c-0.514-0.489-0.771-1.021-0.771-1.594
			c0-0.43,0.062-0.865,0.18-1.307c0.119-0.441,0.3-0.847,0.537-1.217c0.238-0.37,0.531-0.668,0.877-0.895
			c0.348-0.227,0.734-0.34,1.164-0.34c0.263,0,0.496,0.131,0.699,0.394c0.201,0.263,0.41,0.591,0.625,0.984
			c0.215,0.394,0.461,0.818,0.734,1.271c0.273,0.454,0.632,0.877,1.074,1.271c0.441,0.394,0.973,0.722,1.594,0.985
			c0.62,0.263,1.396,0.394,2.327,0.394c1.838,0,3.384-0.316,4.638-0.949c1.254-0.632,2.285-1.545,3.098-2.739
			c0.812-1.193,1.433-2.638,1.861-4.333c0.43-1.694,0.752-3.616,0.967-5.765c0.096-1.193,0.191-2.345,0.287-3.455
			s0.19-2.214,0.286-3.313c0.095-1.098,0.185-2.214,0.269-3.348c0.084-1.133,0.174-2.333,0.27-3.599
			c0.119-1.838,0.227-3.586,0.322-5.246c0.095-1.659,0.173-3.205,0.232-4.637c0.06-1.432,0.106-2.721,0.144-3.867
			s0.065-2.136,0.09-2.972c-0.405-0.835-0.765-1.509-1.073-2.023c-0.312-0.513-0.634-0.907-0.968-1.182
			c-0.335-0.274-0.705-0.459-1.11-0.555c-0.406-0.095-0.896-0.143-1.469-0.143c-0.479,0-1.068,0.089-1.771,0.269
			c-0.705,0.179-1.432,0.436-2.185,0.77c-0.752,0.335-1.504,0.747-2.256,1.236s-1.421,1.05-2.006,1.683
			c-0.585,0.633-1.063,1.331-1.433,2.095c-0.371,0.765-0.556,1.588-0.556,2.471c0,0.764,0.103,1.373,0.306,1.826
			c0.201,0.454,0.44,0.794,0.715,1.021c0.275,0.227,0.55,0.37,0.824,0.43c0.273,0.06,0.472,0.089,0.592,0.089
			c0.596,0,1.086-0.101,1.468-0.304s0.728-0.417,1.038-0.645c0.311-0.227,0.604-0.441,0.878-0.645
			c0.272-0.203,0.591-0.305,0.948-0.305c0.287,0,0.591,0.066,0.912,0.197c0.322,0.131,0.621,0.34,0.896,0.626
			s0.507,0.663,0.697,1.128c0.191,0.465,0.287,1.033,0.287,1.701c0,0.955-0.186,1.778-0.555,2.471
			c-0.371,0.693-0.849,1.271-1.434,1.736c-0.585,0.466-1.253,0.812-2.005,1.039c-0.753,0.227-1.498,0.34-2.238,0.34
			c-1.146,0-2.179-0.197-3.099-0.591c-0.918-0.394-1.699-0.937-2.344-1.629c-0.646-0.692-1.136-1.504-1.47-2.435
			c-0.334-0.931-0.501-1.921-0.501-2.972c0-2.482,0.573-4.649,1.719-6.499c1.146-1.85,2.649-3.396,4.512-4.637
			c1.863-1.241,3.97-2.167,6.32-2.775c2.353-0.609,4.746-0.913,7.18-0.913c1.957,0,3.594,0.197,4.906,0.591
			c1.313,0.394,2.41,0.919,3.295,1.575c0.883,0.657,1.61,1.427,2.185,2.31c0.571,0.883,1.099,1.814,1.575,2.793l9.453,19.193
			c2.459-4.846,4.695-9.185,6.713-13.016c2.019-3.831,3.887-7.203,5.605-10.116c1.719-2.912,3.323-5.395,4.815-7.448
			c1.491-2.053,2.937-3.729,4.333-5.031c1.396-1.301,2.779-2.25,4.152-2.847c1.373-0.596,2.799-0.895,4.279-0.895
			c1.266,0,2.291,0.269,3.079,0.806s1.183,1.343,1.183,2.417c0,0.955-0.156,1.743-0.465,2.363c-0.312,0.621-0.74,0.931-1.291,0.931
			c-0.453,0-0.8-0.173-1.037-0.519c-0.24-0.346-0.473-0.722-0.699-1.128c-0.228-0.405-0.508-0.781-0.842-1.128
			c-0.334-0.346-0.822-0.519-1.467-0.519c-0.383,0-0.849,0.107-1.396,0.322c-0.551,0.215-1.116,0.537-1.701,0.967
			c-0.585,0.43-1.163,0.967-1.736,1.611c-0.572,0.644-1.074,1.396-1.504,2.256c-0.43,0.86-0.765,1.839-1.003,2.937
			c-0.237,1.098-0.312,2.304-0.215,3.617c0.097,1.504,0.228,3.265,0.396,5.282c0.166,2.018,0.352,4.178,0.555,6.481
			c0.201,2.304,0.416,4.686,0.645,7.144c0.227,2.459,0.459,4.882,0.698,7.269c0.237,2.387,0.472,4.679,0.698,6.875
			c0.227,2.197,0.436,4.184,0.627,5.962c0.189,1.778,0.369,3.282,0.537,4.512c0.166,1.229,0.298,2.071,0.394,2.524
			c0.144,0.693,0.334,1.248,0.573,1.665c0.238,0.418,0.668,0.626,1.289,0.626c0.645,0,1.253-0.113,1.826-0.34
			c0.572-0.227,1.086-0.459,1.539-0.698l0.572,1.325c-0.43,0.311-0.973,0.663-1.629,1.057s-1.408,0.77-2.256,1.128
			s-1.779,0.657-2.793,0.895c-1.016,0.238-2.107,0.358-3.275,0.358c-1.647,0-2.949-0.209-3.904-0.626
			c-0.954-0.417-1.688-0.931-2.201-1.54c-0.514-0.609-0.859-1.253-1.039-1.934c-0.18-0.68-0.316-1.294-0.411-1.844
			c-0.215-1.218-0.442-2.686-0.681-4.405c-0.239-1.719-0.473-3.563-0.698-5.532c-0.228-1.969-0.446-3.998-0.662-6.087
			c-0.215-2.088-0.412-4.13-0.591-6.123c-0.18-1.993-0.342-3.873-0.482-5.64c-0.145-1.766-0.265-3.306-0.359-4.619
			c-0.717,1.17-1.379,2.298-1.986,3.384c-0.609,1.087-1.2,2.197-1.771,3.331c-0.574,1.134-1.158,2.322-1.756,3.563
			c-0.597,1.242-1.224,2.591-1.879,4.046c-0.658,1.457-1.373,3.056-2.148,4.798c-0.776,1.743-1.629,3.688-2.562,5.837h-3.508V62.258
			z"/>
		<path fill="#FFFFFF" d="M392.699,58.641c0,0.764,0.112,1.593,0.34,2.489c0.228,0.895,0.555,1.796,0.984,2.704
			s0.961,1.772,1.594,2.596c0.633,0.824,1.361,1.558,2.186,2.203s1.736,1.158,2.738,1.54c1.004,0.382,2.102,0.573,3.295,0.573
			c0.836,0,1.611-0.095,2.328-0.286c0.715-0.191,1.383-0.453,2.004-0.788c0.621-0.334,1.219-0.722,1.791-1.164
			c0.572-0.441,1.146-0.913,1.719-1.415l0.896,0.859c-0.549,0.74-1.254,1.552-2.113,2.435c-0.859,0.883-1.896,1.713-3.115,2.489
			c-1.217,0.776-2.639,1.42-4.262,1.934s-3.473,0.77-5.549,0.77c-2.078,0-4.102-0.376-6.07-1.128s-3.719-1.88-5.245-3.384
			c-1.528-1.504-2.753-3.377-3.671-5.622c-0.92-2.244-1.379-4.87-1.379-7.878c0-2.172,0.273-4.166,0.824-5.98
			c0.549-1.814,1.295-3.449,2.237-4.906c0.942-1.456,2.041-2.733,3.294-3.832c1.254-1.098,2.572-2.011,3.957-2.739
			s2.799-1.277,4.243-1.647s2.835-0.555,4.173-0.555c1.766,0,3.305,0.191,4.617,0.573c1.314,0.382,2.406,0.896,3.277,1.54
			s1.521,1.391,1.951,2.238c0.43,0.848,0.645,1.737,0.645,2.668c0,1.122-0.32,2.13-0.967,3.025
			c-0.645,0.896-1.504,1.678-2.578,2.346L392.699,58.641z M399.896,51.372c0.311-0.191,0.566-0.376,0.77-0.555
			c0.203-0.179,0.365-0.394,0.484-0.645c0.117-0.25,0.209-0.561,0.268-0.931c0.061-0.37,0.09-0.83,0.09-1.379
			c0-0.596-0.064-1.259-0.197-1.987c-0.131-0.728-0.352-1.415-0.66-2.059c-0.313-0.645-0.705-1.182-1.184-1.611
			c-0.477-0.429-1.051-0.645-1.719-0.645c-0.859,0-1.594,0.257-2.201,0.77c-0.609,0.514-1.11,1.176-1.504,1.987
			c-0.396,0.812-0.705,1.737-0.933,2.775c-0.228,1.039-0.399,2.083-0.519,3.133c-0.12,1.051-0.191,2.059-0.215,3.026
			c-0.024,0.967-0.037,1.785-0.037,2.453L399.896,51.372z"/>
	</g>
	<g>
		<path fill="#FFFFFF" d="M60.464,20.169c0.037-0.252,0.076-0.504,0.093-0.763c0.364-5.408-3.724-10.087-9.131-10.451
			c-5.408-0.365-10.087,3.724-10.452,9.131c-0.017,0.259-0.013,0.513-0.01,0.769L60.464,20.169z"/>
		<path fill="#FFFFFF" d="M41.299,21.317c0.446,1.631,1.303,3.104,2.461,4.288l2.039,29.962l4.751,0.32l6.237-29.405
			c1.307-1.018,2.354-2.362,3.014-3.918L41.299,21.317z"/>
	</g>
	<path fill="#FFFFFF" d="M64.913,71.447c-5.704,0-10.058-1.199-13.029-3.599c-3.513-2.837-5.03-7.249-4.509-13.112l1.992,0.177
		c-0.458,5.159,0.811,8.987,3.773,11.38c5.758,4.65,17.69,4.214,35.465-1.298l0.593,1.91C79.436,69.932,71.322,71.447,64.913,71.447
		z"/>
</g>
</svg>
